<svg width="24" height="24" viewBox="0 0 24 24" fill="none" xmlns="http://www.w3.org/2000/svg">
<path d="M11.0449 15.8705V22.97H3.33846C3.14306 22.9693 2.94847 22.9446 2.7591 22.8964C2.63976 22.8693 2.52287 22.8324 2.40965 22.786C2.21444 22.7011 2.03186 22.5897 1.86707 22.455C1.50405 22.1603 1.23741 21.7638 1.1014 21.3164C0.965393 20.8691 0.966222 20.3913 1.10378 19.9444C1.50879 18.5742 2.39769 17.3977 3.60516 16.6338C3.7431 16.551 3.88104 16.4682 4.02818 16.3947C4.40545 16.1981 4.80331 16.0439 5.2145 15.9348L7.73426 15.2819L8.73665 15.0244L8.91138 15.1256C9.56168 15.5224 10.2889 15.7763 11.0449 15.8705Z" fill="#A4E192"/>
<path d="M15.7166 22.9699H4.13859C3.94927 22.9686 3.76085 22.9439 3.57762 22.8963C3.46128 22.8692 3.34745 22.8323 3.23736 22.786C3.05074 22.7008 2.87731 22.5893 2.72238 22.4549C2.37498 22.151 2.12256 21.7535 1.99534 21.3098C1.86811 20.8662 1.8715 20.3953 2.00508 19.9535C2.37182 18.5955 3.21791 17.4162 4.38688 16.6337L4.79151 16.3946C5.14961 16.1983 5.52916 16.044 5.92264 15.9348L8.35962 15.3002L8.93898 15.1439C9.5797 15.5294 10.2938 15.7768 11.0357 15.8704C11.2869 15.885 11.5386 15.885 11.7898 15.8704C12.0992 15.8715 12.4077 15.8375 12.7094 15.7692C13.4754 15.686 14.196 15.3643 14.7694 14.8496L15.689 15.1071C15.1171 15.5853 14.6572 16.1831 14.3416 16.8584C14.0259 17.5337 13.8624 18.2701 13.8624 19.0155C13.8624 19.7609 14.0259 20.4973 14.3416 21.1726C14.6572 21.8479 15.1171 22.4457 15.689 22.9239L15.7166 22.9699Z" fill="#44C068"/>
<path d="M16.4798 3.41862C16.2724 3.13141 16.0136 2.88509 15.7165 2.69212C15.7934 2.55267 15.861 2.40828 15.9188 2.2599C16.1134 1.86671 16.2261 1.43807 16.2499 1.00001H11.4679C11.0064 0.998776 10.5493 1.08918 10.1231 1.26599C9.69684 1.4428 9.30996 1.70249 8.98488 2.02999C8.90967 2.10216 8.83903 2.17894 8.77337 2.2599C8.24813 2.893 7.96174 3.69036 7.9641 4.51297C6.9801 4.51297 6.9801 5.1843 6.9801 5.1843L7.31117 8.96394L12.038 5.76366C12.038 5.76366 12.9577 5.23028 13.8221 4.6785L14.0244 5.77285L13.8773 8.11789L15.2383 10.6561L16.4614 10.1962C16.4614 10.1962 16.7465 8.35699 16.9764 5.46018C17.0552 4.7425 16.8795 4.01993 16.4798 3.41862Z" fill="#037507"/>
<path d="M16.1304 6.04865C16.1125 7.84696 15.9958 9.64293 15.7809 11.4284C15.7128 11.9177 15.4791 12.3688 15.1188 12.7067C14.4791 13.272 13.7861 13.774 13.0497 14.2057C12.9149 14.2821 12.7631 14.3232 12.6082 14.3253H11.3024C11.1475 14.3232 10.9957 14.2821 10.861 14.2057C10.1508 13.7933 9.48249 13.3129 8.86538 12.7711C8.45766 12.3954 8.19688 11.8868 8.12968 11.3365C7.89553 9.58362 7.77878 7.81707 7.78023 6.04865C7.78154 5.97805 7.80422 5.90951 7.84526 5.85205C7.8863 5.7946 7.94378 5.75092 8.01013 5.72678C8.18174 5.62561 8.32436 5.4819 8.42424 5.30954C8.52411 5.13718 8.57786 4.94198 8.5803 4.74278C8.59625 4.59321 8.66717 4.45489 8.77932 4.35464C8.89146 4.25439 9.03683 4.19936 9.18725 4.2002H14.705C14.8047 4.20058 14.9027 4.22587 14.9901 4.27377C15.0824 4.31489 15.1619 4.38017 15.2201 4.46272C15.2784 4.54527 15.3133 4.64204 15.3211 4.74278C15.3189 4.94182 15.3697 5.13785 15.4683 5.31077C15.5669 5.48369 15.7097 5.62727 15.8821 5.72678C15.9519 5.74783 16.0133 5.79018 16.0579 5.84789C16.1024 5.90561 16.1278 5.9758 16.1304 6.04865Z" fill="#F6C589"/>
<path d="M9.36196 12.5138C8.93585 12.0278 8.68634 11.4121 8.65386 10.7665L8.40556 5.33154C8.32178 5.50394 8.18252 5.6432 8.01012 5.72698C7.94377 5.75112 7.88628 5.7948 7.84524 5.85226C7.8042 5.90971 7.78153 5.97825 7.78021 6.04885C7.78021 6.50866 7.78021 6.96847 7.78021 7.33632C7.78021 7.33632 6.77782 7.74095 6.92496 8.44906C7.10889 9.36869 7.42156 10.601 8.00092 10.647C8.00092 10.9504 8.0653 11.2263 8.10208 11.4746C8.168 11.964 8.40599 12.4139 8.77341 12.7437C9.40997 13.3061 10.0999 13.8051 10.8334 14.2335L9.36196 12.5138Z" fill="#F3A75C"/>
<path d="M16.0937 7.30873C16.0937 6.91329 16.0937 6.49946 16.0937 6.04885C16.0924 5.97825 16.0697 5.90971 16.0287 5.85226C15.9876 5.7948 15.9301 5.75112 15.8638 5.72698C15.6907 5.64096 15.5491 5.5026 15.4592 5.33154L15.2109 10.7665C15.1827 11.413 14.9327 12.0301 14.5027 12.5138L13.0497 14.2059C13.7832 13.7775 14.4731 13.2785 15.1097 12.7161C15.474 12.3838 15.7113 11.9352 15.781 11.447C15.781 11.1987 15.8454 10.9228 15.873 10.6194C16.4523 10.5642 16.7926 9.35949 16.9489 8.42147C17.0961 7.71337 16.0937 7.30873 16.0937 7.30873Z" fill="#F3A75C"/>
<path d="M19.0549 23.0251C21.2337 23.0251 23 21.2588 23 19.0799C23 16.9011 21.2337 15.1348 19.0549 15.1348C16.876 15.1348 15.1097 16.9011 15.1097 19.0799C15.1097 21.2588 16.876 23.0251 19.0549 23.0251Z" fill="#008B4E"/>
<path d="M19.0549 23.0251C21.2337 23.0251 23 21.2588 23 19.0799C23 16.9011 21.2337 15.1348 19.0549 15.1348C16.876 15.1348 15.1097 16.9011 15.1097 19.0799C15.1097 21.2588 16.876 23.0251 19.0549 23.0251Z" fill="#008B4E"/>
<path d="M19.0549 22.4182C21.2337 22.4182 23 20.6519 23 18.473C23 16.2941 21.2337 14.5278 19.0549 14.5278C16.876 14.5278 15.1097 16.2941 15.1097 18.473C15.1097 20.6519 16.876 22.4182 19.0549 22.4182Z" fill="#F7AD38"/>
<path d="M20.7377 17.728H19.8181V16.8084C19.8181 16.6108 19.7396 16.4213 19.5999 16.2817C19.4602 16.142 19.2707 16.0635 19.0732 16.0635C18.8756 16.0635 18.6861 16.142 18.5465 16.2817C18.4068 16.4213 18.3283 16.6108 18.3283 16.8084V17.728H17.4087C17.3085 17.7243 17.2087 17.7408 17.1151 17.7766C17.0215 17.8123 16.9361 17.8666 16.864 17.9362C16.7919 18.0057 16.7345 18.0891 16.6954 18.1813C16.6562 18.2735 16.6361 18.3727 16.6362 18.4729C16.6362 18.6704 16.7146 18.8599 16.8543 18.9996C16.994 19.1393 17.1835 19.2178 17.3811 19.2178H18.3007V20.1374C18.3007 20.335 18.3792 20.5244 18.5189 20.6641C18.6586 20.8038 18.848 20.8823 19.0456 20.8823C19.2431 20.8823 19.4326 20.8038 19.5723 20.6641C19.712 20.5244 19.7905 20.335 19.7905 20.1374V19.2178H20.7101C20.9077 19.2178 21.0971 19.1393 21.2368 18.9996C21.3765 18.8599 21.455 18.6704 21.455 18.4729C21.4551 18.28 21.3804 18.0946 21.2467 17.9557C21.1129 17.8168 20.9304 17.7351 20.7377 17.728Z" fill="white"/>
</svg>
